<svg id="svg" version="1.1" width="400" height="224.89019033674964" viewBox="0 0 400 224.89019033674964" xmlns="http://www.w3.org/2000/svg" xmlns:xlink="http://www.w3.org/1999/xlink" ><g id="svgg"><path id="path0" d="M183.500 20.935 C 171.701 22.002,165.658 23.979,155.023 30.250 C 154.519 30.547,150.927 33.131,150.581 33.445 C 150.396 33.613,149.796 34.123,149.247 34.578 C 144.291 38.695,140.106 43.681,136.303 50.000 C 127.852 64.040,126.256 83.540,132.247 99.560 C 136.804 111.745,146.291 123.079,157.031 129.166 C 169.886 136.453,183.334 138.878,197.081 136.388 C 201.395 135.607,206.228 134.196,209.250 132.835 C 209.433 132.752,209.958 132.522,210.417 132.324 C 236.261 121.118,250.395 91.669,243.087 64.250 C 242.843 63.333,242.584 62.358,242.512 62.083 C 241.792 59.332,239.314 53.588,237.443 50.333 C 236.154 48.092,233.940 44.771,232.919 43.547 C 232.826 43.436,232.674 43.249,232.581 43.131 C 228.242 37.647,220.604 30.920,216.667 29.112 C 216.529 29.049,216.117 28.812,215.750 28.586 C 207.437 23.450,193.156 20.062,183.500 20.935 M187.917 52.053 C 191.096 52.859,191.368 53.079,192.873 56.083 C 195.197 60.719,197.000 69.299,197.000 75.723 L 197.000 77.399 196.527 76.658 C 195.358 74.826,193.470 73.655,191.495 73.537 C 189.537 73.419,189.436 73.548,191.083 74.062 C 194.222 75.039,197.000 78.056,197.000 80.486 C 197.000 81.495,196.633 84.519,196.517 84.457 C 192.212 82.129,189.235 82.779,188.311 86.250 C 187.464 89.430,185.780 90.657,183.026 90.099 C 179.672 89.419,179.145 89.788,178.004 93.614 C 177.030 96.877,175.658 97.572,172.319 96.493 C 170.425 95.880,168.951 95.710,167.952 95.990 C 165.544 96.664,160.033 94.698,156.068 91.749 L 154.132 90.309 154.523 91.030 C 156.089 93.911,160.166 96.404,164.467 97.110 L 166.122 97.382 165.895 97.816 C 165.771 98.055,165.668 98.373,165.668 98.524 C 165.665 99.189,164.942 101.055,164.484 101.576 C 163.844 102.305,163.371 102.446,160.864 102.651 C 158.502 102.845,157.360 103.258,156.250 104.323 C 155.668 104.881,155.382 105.007,154.000 105.310 C 153.129 105.501,151.554 105.890,150.500 106.175 C 145.371 107.561,140.125 105.322,137.830 100.765 C 137.165 99.446,137.137 99.557,138.765 97.006 C 141.384 92.899,142.878 89.946,144.418 85.833 C 151.039 68.142,161.083 55.896,171.417 52.915 C 176.360 51.490,184.096 51.085,187.917 52.053 M194.639 54.183 C 200.213 56.140,204.177 57.476,204.958 57.660 C 206.036 57.914,206.039 57.987,205.005 58.746 C 200.550 62.016,198.529 68.860,200.574 73.753 C 200.826 74.356,200.820 74.443,200.473 75.403 C 199.348 78.510,200.284 82.076,202.628 83.613 C 206.665 86.259,209.017 93.576,205.830 93.576 C 204.988 93.576,204.990 93.579,204.813 91.969 C 204.520 89.308,203.514 87.018,202.022 85.617 C 198.547 82.353,198.549 82.358,198.436 76.250 C 198.274 67.470,196.416 60.026,193.001 54.477 C 192.262 53.275,192.125 53.300,194.639 54.183 M115.333 54.625 C 115.331 56.883,113.762 63.653,112.005 68.985 L 111.333 71.023 111.345 86.220 C 111.351 94.578,111.417 101.267,111.492 101.083 C 111.566 100.900,111.792 100.000,111.994 99.083 C 112.580 96.413,113.467 93.312,114.590 90.000 C 115.549 87.170,116.030 85.832,117.255 82.583 C 120.943 72.798,121.983 69.054,122.116 65.083 C 122.239 61.417,121.712 59.399,120.111 57.417 C 119.501 56.661,117.665 55.000,117.440 55.000 C 117.389 55.000,116.966 54.775,116.500 54.500 C 115.417 53.861,115.333 53.870,115.333 54.625 M219.667 58.570 C 222.292 58.968,223.651 59.491,226.269 61.111 C 229.851 63.328,230.636 63.659,232.778 63.860 C 235.736 64.137,236.419 64.725,236.283 66.876 C 236.076 70.122,232.957 72.652,229.147 72.664 L 228.376 72.667 228.263 71.667 C 228.134 70.521,227.810 69.650,227.225 68.875 C 226.633 68.090,226.457 68.211,226.863 69.125 C 227.909 71.481,227.473 73.544,225.518 75.503 C 221.614 79.415,214.510 82.108,205.083 83.249 L 203.250 83.471 202.815 82.978 C 200.205 80.021,200.785 74.704,204.123 70.991 C 205.234 69.756,204.225 70.274,202.776 71.683 C 202.220 72.224,201.745 72.667,201.722 72.667 C 201.556 72.667,200.966 70.177,200.885 69.136 C 200.671 66.374,201.565 64.088,203.996 61.182 C 205.090 59.875,206.941 58.366,207.562 58.276 C 208.835 58.091,217.969 58.313,219.667 58.570 M201.013 85.588 C 202.935 87.488,203.372 88.251,203.838 90.519 C 204.428 93.396,204.440 93.898,203.926 94.132 C 203.273 94.429,202.010 94.244,201.997 93.848 C 201.895 90.831,199.635 86.333,198.220 86.333 C 197.951 86.333,197.950 86.208,198.194 83.950 L 198.389 82.150 198.872 83.049 C 199.157 83.581,200.033 84.619,201.013 85.588 M195.777 85.187 C 197.052 85.817,197.081 85.967,196.001 86.349 C 193.363 87.282,192.082 88.579,191.687 90.717 C 191.332 92.637,189.976 93.495,186.500 93.999 C 183.969 94.367,183.316 94.851,182.000 97.335 C 180.493 100.182,179.232 100.945,175.250 101.422 C 172.025 101.809,171.226 102.096,168.232 103.947 C 165.994 105.331,164.563 105.833,162.861 105.833 C 161.878 105.833,158.167 105.023,158.167 104.808 C 158.167 104.568,159.891 104.197,161.500 104.090 C 164.807 103.872,166.015 102.972,166.849 100.104 C 167.730 97.073,168.193 96.867,171.762 97.917 C 176.289 99.249,178.321 98.146,179.587 93.667 C 180.306 91.123,180.420 91.049,182.781 91.597 C 186.070 92.361,188.718 90.542,189.739 86.818 C 190.396 84.420,192.874 83.751,195.777 85.187 M260.244 99.125 C 260.305 99.285,260.590 100.626,260.877 102.105 L 261.397 104.793 262.324 105.083 C 264.536 105.775,267.308 107.205,270.380 109.238 L 270.843 109.545 270.760 107.981 C 270.641 105.754,270.502 103.985,270.406 103.495 C 270.272 102.812,265.850 100.565,262.379 99.416 C 260.357 98.746,260.083 98.709,260.244 99.125 M120.696 103.542 C 117.681 108.481,117.701 116.906,120.747 124.250 C 122.440 128.331,126.121 134.682,128.407 137.464 C 128.504 137.582,128.658 137.770,128.750 137.883 C 128.842 137.995,129.289 138.574,129.744 139.169 C 130.198 139.763,130.620 140.287,130.681 140.333 C 130.742 140.379,131.221 140.942,131.744 141.583 C 133.388 143.597,137.843 148.227,140.066 150.231 C 140.668 150.774,140.474 150.788,138.611 150.337 C 137.862 150.156,136.725 149.884,136.083 149.733 C 128.043 147.841,119.169 143.967,114.083 140.131 C 113.597 139.764,112.829 139.162,112.125 138.596 L 111.333 137.960 111.333 149.290 L 111.333 160.620 112.958 161.672 C 116.319 163.846,119.230 165.363,121.417 166.079 C 128.526 168.409,141.208 174.229,149.086 178.778 C 150.187 179.414,151.218 179.984,151.377 180.045 C 151.651 180.150,151.667 178.978,151.667 158.284 L 151.667 136.412 150.125 135.248 C 149.277 134.607,148.492 134.008,148.381 133.917 C 147.981 133.588,147.735 133.397,146.667 132.587 C 146.071 132.135,145.546 131.723,145.500 131.672 C 145.454 131.620,144.779 131.056,144.000 130.418 C 142.667 129.327,142.264 128.983,141.190 128.023 C 140.341 127.265,136.908 123.869,136.093 122.981 C 134.615 121.372,127.618 112.279,125.205 108.833 C 124.917 108.421,124.216 107.446,123.649 106.667 C 123.082 105.888,122.280 104.744,121.868 104.125 C 120.989 102.806,121.109 102.866,120.696 103.542 M274.090 106.155 C 274.038 106.240,274.001 107.309,274.009 108.530 C 274.029 111.764,273.663 115.252,273.059 117.583 C 272.916 118.133,272.770 118.741,272.734 118.934 C 272.698 119.127,272.559 119.596,272.425 119.976 C 272.291 120.356,272.210 120.667,272.246 120.667 C 272.281 120.667,272.093 121.262,271.827 121.989 C 271.433 123.071,271.389 123.321,271.589 123.364 C 271.769 123.403,271.644 123.699,271.107 124.500 C 270.708 125.096,270.092 126.146,269.740 126.833 C 268.411 129.423,266.875 131.686,264.958 133.876 L 263.973 135.002 267.111 139.015 C 272.349 145.713,272.693 146.167,272.521 146.167 C 272.429 146.167,269.481 145.346,265.969 144.344 C 262.457 143.341,259.456 142.498,259.299 142.469 C 259.060 142.425,253.006 151.043,251.522 153.541 C 251.079 154.285,251.066 154.195,250.893 149.419 C 250.802 146.900,250.694 144.805,250.654 144.765 C 250.613 144.724,250.065 144.941,249.435 145.247 C 248.806 145.552,247.569 146.080,246.687 146.418 C 245.805 146.757,244.718 147.182,244.271 147.364 C 243.824 147.545,243.337 147.723,243.188 147.759 C 243.039 147.795,241.702 148.200,240.217 148.658 C 238.732 149.116,237.345 149.523,237.134 149.563 C 236.923 149.603,236.397 149.725,235.965 149.836 L 235.180 150.036 235.778 150.976 C 240.021 157.640,247.487 162.458,254.917 163.326 C 256.024 163.455,256.129 163.437,256.984 162.965 C 258.938 161.887,263.727 158.416,265.292 156.944 C 265.590 156.664,265.833 156.491,265.833 156.559 C 265.833 156.627,267.696 154.823,269.972 152.550 C 278.260 144.273,283.559 136.942,286.617 129.521 C 287.295 127.876,287.303 127.640,286.752 125.588 C 284.875 118.587,281.723 113.159,276.612 108.125 C 274.463 106.009,274.273 105.860,274.090 106.155 M261.733 107.458 C 261.931 108.109,262.333 113.995,262.333 116.233 C 262.333 118.627,261.994 122.786,261.654 124.554 C 261.563 125.029,261.449 125.679,261.401 126.000 C 261.353 126.321,261.278 126.708,261.234 126.861 C 261.170 127.081,261.591 126.976,263.269 126.351 L 265.386 125.565 266.038 124.407 C 266.879 122.915,268.833 118.900,268.833 118.665 C 268.833 118.565,268.961 118.243,269.118 117.950 C 269.274 117.657,269.388 117.365,269.371 117.302 C 269.354 117.240,269.458 116.865,269.602 116.469 C 270.137 114.998,270.608 112.752,270.758 110.962 L 270.838 110.008 269.961 109.563 C 266.960 108.043,261.485 106.642,261.733 107.458 M251.000 107.936 C 250.221 108.167,248.871 108.659,248.000 109.031 L 246.417 109.707 244.750 111.969 C 242.950 114.412,239.611 118.812,238.014 120.846 C 237.469 121.540,235.969 123.200,234.680 124.534 L 232.338 126.960 231.922 128.676 C 230.568 134.269,231.077 140.444,233.375 146.292 C 233.975 147.820,234.667 148.652,234.667 147.846 C 234.667 147.762,235.400 146.918,236.297 145.971 C 239.129 142.981,239.740 142.297,241.330 140.333 C 242.184 139.279,243.014 138.299,243.173 138.155 C 243.441 137.913,243.222 137.824,240.357 137.008 C 238.648 136.521,237.197 136.076,237.132 136.019 C 237.068 135.962,239.257 135.097,241.998 134.098 C 247.909 131.943,247.131 132.371,248.087 130.750 C 248.520 130.017,248.958 129.362,249.062 129.294 C 249.165 129.227,249.189 129.171,249.114 129.169 C 249.039 129.168,249.226 128.698,249.531 128.125 L 250.083 127.083 249.959 123.750 C 249.890 121.917,249.853 119.650,249.875 118.714 L 249.917 117.010 251.292 118.776 C 252.048 119.747,252.667 120.513,252.668 120.479 C 252.668 120.445,252.858 119.554,253.090 118.500 C 253.835 115.117,253.833 111.069,253.086 108.000 C 253.053 107.862,253.020 107.694,253.013 107.625 C 252.992 107.418,252.490 107.496,251.000 107.936 M111.333 130.534 C 111.333 132.255,111.366 132.456,111.708 132.837 C 111.915 133.066,112.383 133.627,112.749 134.085 C 113.415 134.917,113.633 135.172,114.740 136.417 C 115.506 137.277,115.502 137.025,114.734 135.956 C 114.099 135.071,113.255 133.462,112.704 132.083 C 111.838 129.919,111.667 129.434,111.667 129.154 C 111.667 128.989,111.592 128.807,111.500 128.750 C 111.393 128.684,111.333 129.318,111.333 130.534 M218.980 137.647 C 218.557 137.979,217.228 138.962,216.027 139.833 C 213.532 141.643,213.710 141.175,214.428 144.031 C 217.314 155.518,225.701 165.075,236.750 169.466 C 239.515 170.565,239.128 170.560,241.579 169.532 C 242.773 169.032,244.012 168.525,244.333 168.407 C 244.654 168.289,245.479 167.961,246.167 167.680 C 246.854 167.398,247.510 167.168,247.625 167.167 C 248.387 167.165,247.559 166.872,246.125 166.635 C 232.439 164.381,221.695 152.883,219.991 138.667 C 219.886 137.796,219.789 137.074,219.775 137.063 C 219.761 137.052,219.404 137.315,218.980 137.647 " stroke="none" fill="#ffffff" fill-rule="evenodd"></path><path id="path1" d="M102.828 58.844 C 102.638 59.216,102.347 59.762,102.181 60.057 C 101.646 61.010,98.513 66.853,97.253 69.250 C 96.722 70.258,96.082 71.458,95.829 71.917 C 92.821 77.378,86.348 90.481,85.291 93.250 C 78.945 109.870,81.633 127.821,92.554 141.750 C 95.249 145.188,96.554 146.783,98.071 148.495 C 98.839 149.362,104.829 155.352,105.498 155.921 C 105.818 156.194,106.381 156.669,106.748 156.977 C 107.116 157.285,107.780 157.844,108.224 158.219 C 108.668 158.594,109.549 159.266,110.182 159.712 L 111.333 160.523 111.333 149.251 L 111.333 137.979 109.448 136.114 C 100.109 126.880,96.201 113.013,98.917 98.750 C 99.507 95.652,99.712 94.688,100.017 93.583 C 100.194 92.942,100.462 91.967,100.613 91.417 C 100.763 90.867,101.018 90.079,101.178 89.667 C 101.339 89.254,101.745 88.204,102.080 87.333 C 102.416 86.462,102.830 85.412,103.000 85.000 C 103.170 84.587,103.582 83.537,103.917 82.667 C 104.251 81.796,104.667 80.746,104.841 80.333 C 105.015 79.921,105.814 77.933,106.617 75.917 L 108.076 72.250 108.080 68.417 C 108.084 63.984,107.822 62.751,106.433 60.667 C 104.976 58.481,103.416 57.692,102.828 58.844 M111.203 71.330 C 111.183 71.466,111.017 71.953,110.835 72.413 C 110.652 72.874,110.094 74.300,109.595 75.583 C 108.767 77.709,107.836 79.891,106.714 82.333 C 103.615 89.079,101.052 102.655,101.381 110.583 C 101.611 116.136,104.399 122.625,109.827 130.245 C 110.878 131.721,111.264 132.154,111.310 131.912 C 111.452 131.175,111.179 127.027,110.932 126.167 C 109.704 121.893,109.718 110.096,110.958 104.667 C 111.212 103.552,111.249 101.932,111.294 89.667 C 111.339 77.311,111.306 70.637,111.203 71.330 " stroke="none" fill="#00209f" fill-rule="evenodd"></path><path id="path2" d="M178.250 51.751 C 169.990 52.622,165.217 54.886,159.500 60.649 C 153.543 66.653,148.907 74.454,144.337 86.167 C 142.499 90.876,141.288 93.252,138.684 97.259 C 137.005 99.842,137.145 100.531,139.909 103.275 C 143.236 106.578,146.045 107.264,150.948 105.973 C 152.398 105.591,154.033 105.195,154.583 105.092 C 155.377 104.944,155.716 104.776,156.228 104.279 C 157.489 103.053,158.416 102.735,161.366 102.516 C 164.220 102.305,165.001 101.629,165.522 98.917 C 165.627 98.367,165.778 97.845,165.857 97.758 C 166.123 97.464,166.002 97.333,165.458 97.330 C 162.404 97.309,157.727 95.096,155.655 92.692 C 154.947 91.869,153.801 90.024,154.122 90.222 C 154.223 90.285,155.088 90.925,156.046 91.646 C 158.951 93.833,160.595 94.679,163.167 95.311 C 165.658 95.923,167.320 96.154,167.866 95.964 C 168.671 95.683,170.770 95.918,172.616 96.496 C 175.857 97.510,177.070 96.772,178.083 93.167 C 178.987 89.951,179.737 89.381,182.359 89.913 C 184.250 90.297,185.304 90.200,186.220 89.560 C 186.977 89.030,188.000 87.648,188.000 87.154 C 188.000 86.528,188.725 84.937,189.299 84.301 C 190.773 82.669,192.662 82.498,195.316 83.756 C 195.994 84.077,196.567 84.320,196.590 84.295 C 196.951 83.903,196.926 79.980,196.556 79.102 C 195.419 76.400,193.973 75.078,191.142 74.150 C 189.229 73.524,189.361 73.228,191.475 73.403 C 193.387 73.561,195.027 74.525,196.283 76.228 L 197.037 77.250 196.924 74.917 C 196.440 64.894,193.135 53.754,190.378 52.853 C 186.418 51.558,183.016 51.249,178.250 51.751 M192.902 54.143 C 196.571 59.956,198.836 69.616,198.646 78.648 C 198.580 81.768,199.105 83.011,201.228 84.763 C 203.433 86.581,204.584 88.887,204.956 92.231 C 205.099 93.523,205.323 93.729,206.298 93.467 C 207.019 93.274,207.216 92.735,207.077 91.339 C 206.735 87.891,205.351 85.534,202.562 83.652 C 200.249 82.091,199.302 78.567,200.372 75.500 L 200.750 74.417 200.385 73.333 C 199.021 69.284,199.843 64.494,202.474 61.167 C 203.239 60.198,203.746 59.704,205.056 58.650 C 205.534 58.265,205.772 57.976,205.640 57.939 C 204.793 57.705,198.197 55.511,195.626 54.608 L 192.502 53.510 192.902 54.143 M255.417 54.622 C 250.158 57.758,248.755 62.788,250.919 70.750 C 251.168 71.667,251.432 72.642,251.505 72.917 C 251.716 73.708,252.755 76.782,253.334 78.333 C 253.626 79.112,254.050 80.271,254.278 80.908 C 254.506 81.545,254.942 82.708,255.247 83.492 C 257.347 88.889,260.000 97.260,260.000 98.492 C 260.000 98.690,260.064 98.813,260.142 98.765 C 260.653 98.450,266.708 100.922,269.599 102.627 L 270.429 103.116 270.289 101.933 C 269.306 93.585,267.700 87.444,264.751 80.750 C 260.356 70.775,257.477 61.425,256.913 55.292 C 256.776 53.805,256.783 53.808,255.417 54.622 M209.072 58.323 L 207.061 58.417 206.218 59.123 C 201.749 62.868,200.115 66.900,201.314 71.224 C 201.720 72.687,201.666 72.671,202.715 71.641 C 203.214 71.151,203.950 70.566,204.351 70.342 L 205.081 69.933 204.165 71.037 C 200.713 75.202,200.220 81.411,203.197 83.230 C 204.462 84.002,216.207 81.145,220.417 79.041 C 226.853 75.824,228.362 73.112,226.422 68.250 C 226.338 68.040,226.543 68.164,226.976 68.584 C 227.766 69.352,228.333 70.742,228.333 71.913 C 228.333 72.801,228.537 72.847,230.569 72.417 C 234.063 71.677,235.985 69.772,236.120 66.917 C 236.225 64.679,235.745 64.207,233.148 63.995 C 230.705 63.796,230.048 63.533,226.596 61.372 C 222.736 58.957,217.420 57.833,211.583 58.198 C 211.308 58.216,210.178 58.272,209.072 58.323 M267.833 58.580 C 265.539 60.128,264.381 62.416,264.010 66.133 C 263.775 68.488,264.021 72.029,264.497 73.167 C 264.670 73.579,265.222 74.967,265.724 76.250 C 266.226 77.533,267.201 80.008,267.890 81.750 C 270.236 87.675,270.523 88.416,270.990 89.750 C 272.419 93.826,273.520 99.172,273.834 103.554 L 273.975 105.524 276.063 107.520 C 281.615 112.827,285.422 119.311,286.932 126.031 C 287.335 127.826,287.392 127.848,287.885 126.388 C 291.663 115.185,290.903 102.060,285.818 90.715 C 284.976 88.837,279.196 77.266,277.968 75.000 C 277.645 74.404,276.871 72.942,276.249 71.750 C 275.113 69.575,272.895 65.425,271.172 62.250 C 268.665 57.630,268.884 57.871,267.833 58.580 M198.272 83.940 C 198.211 84.733,198.118 85.553,198.065 85.763 C 197.985 86.081,198.081 86.201,198.635 86.484 C 200.187 87.276,202.000 90.925,202.000 93.256 C 202.000 93.942,202.334 94.212,203.182 94.212 C 204.257 94.212,204.342 94.016,204.064 92.176 C 203.509 88.511,203.164 87.786,200.924 85.583 C 199.923 84.600,199.096 83.628,198.906 83.213 C 198.457 82.234,198.398 82.303,198.272 83.940 M191.603 84.672 C 190.610 84.970,190.125 85.638,189.645 87.373 C 188.696 90.796,186.067 92.309,182.329 91.582 C 180.423 91.212,180.404 91.228,179.668 93.667 C 178.305 98.184,176.168 99.385,171.891 98.034 C 168.594 96.994,167.784 97.266,167.058 99.659 C 166.002 103.137,165.020 103.926,161.439 104.171 C 158.014 104.405,157.552 104.758,159.958 105.304 C 163.243 106.050,165.171 105.745,167.954 104.039 C 171.127 102.096,172.406 101.601,174.750 101.411 C 178.864 101.078,180.288 100.298,181.769 97.567 C 183.262 94.813,183.700 94.465,186.280 93.986 C 190.206 93.257,191.206 92.650,191.601 90.756 C 192.100 88.366,193.106 87.398,196.494 86.052 C 197.860 85.509,193.200 84.194,191.603 84.672 M250.742 103.548 C 250.645 103.659,250.423 103.994,250.247 104.292 C 250.072 104.590,249.869 104.833,249.797 104.833 C 249.725 104.833,249.667 104.948,249.667 105.089 C 249.667 105.229,249.554 105.387,249.417 105.440 C 249.279 105.492,249.167 105.635,249.167 105.756 C 249.167 105.877,249.035 106.107,248.875 106.268 C 248.715 106.428,248.583 106.602,248.583 106.655 C 248.582 106.789,247.610 108.071,247.458 108.139 C 247.390 108.169,247.333 108.301,247.333 108.431 C 247.333 108.560,247.270 108.667,247.193 108.667 C 247.116 108.667,246.968 108.855,246.863 109.084 L 246.673 109.502 247.295 109.232 C 248.795 108.581,249.844 108.202,251.167 107.833 C 252.925 107.343,252.902 107.364,252.649 106.480 C 252.534 106.078,252.435 105.700,252.428 105.639 C 252.422 105.578,252.360 105.472,252.292 105.403 C 252.223 105.334,252.167 105.182,252.167 105.066 C 252.167 104.312,251.082 103.156,250.742 103.548 M261.398 105.292 C 261.448 105.544,261.535 106.022,261.592 106.355 L 261.696 106.960 263.140 107.240 C 265.181 107.636,267.145 108.251,269.068 109.097 C 270.866 109.889,271.162 109.933,270.303 109.282 C 268.487 107.907,265.198 106.175,262.679 105.266 C 261.214 104.737,261.287 104.736,261.398 105.292 M249.910 119.583 C 249.961 120.958,250.051 123.133,250.110 124.417 L 250.218 126.750 250.684 125.750 C 251.195 124.655,252.022 122.586,252.032 122.380 C 252.035 122.308,252.177 121.897,252.347 121.466 L 252.655 120.683 251.667 119.383 C 251.123 118.668,250.484 117.858,250.248 117.583 L 249.818 117.083 249.910 119.583 M271.377 123.473 C 271.189 123.589,270.593 124.833,270.726 124.833 C 270.830 124.833,271.697 123.474,271.633 123.410 C 271.600 123.378,271.485 123.406,271.377 123.473 M262.943 126.552 L 261.136 127.250 260.841 128.167 C 260.679 128.671,260.450 129.458,260.334 129.917 C 260.217 130.375,260.019 130.916,259.894 131.119 C 259.769 131.322,259.667 131.595,259.667 131.724 C 259.667 132.006,258.089 135.213,257.791 135.537 C 257.310 136.061,257.129 136.526,257.496 136.297 C 257.682 136.181,257.833 136.039,257.833 135.980 C 257.833 135.880,259.603 133.703,260.120 133.167 C 260.340 132.938,261.726 131.039,263.038 129.167 C 263.327 128.754,263.625 128.392,263.699 128.361 C 263.773 128.331,263.833 128.199,263.833 128.069 C 263.833 127.940,263.908 127.833,264.000 127.833 C 264.092 127.833,264.167 127.735,264.167 127.615 C 264.167 127.495,264.335 127.215,264.542 126.994 C 264.748 126.772,264.897 126.552,264.874 126.504 C 264.850 126.456,264.943 126.285,265.080 126.125 C 265.475 125.664,264.998 125.759,262.943 126.552 M231.667 127.457 C 231.346 127.706,231.061 127.959,231.034 128.019 C 231.008 128.078,230.370 128.642,229.618 129.271 C 228.865 129.901,228.175 130.502,228.083 130.607 C 227.825 130.903,221.698 135.642,220.932 136.139 C 219.886 136.816,219.803 137.214,220.181 139.718 C 222.255 153.441,232.593 164.149,246.126 166.590 C 247.961 166.921,248.471 166.871,250.333 166.173 C 251.112 165.881,251.825 165.627,251.917 165.608 C 252.008 165.589,252.974 165.129,254.062 164.584 L 256.041 163.595 253.979 163.237 C 246.608 161.957,240.066 157.622,235.862 151.233 C 235.282 150.351,235.000 150.061,234.759 150.098 C 234.581 150.125,233.906 150.268,233.259 150.417 C 231.669 150.781,231.500 150.812,231.500 150.738 C 231.500 150.678,232.381 149.841,233.519 148.818 C 234.119 148.280,234.126 148.378,233.357 146.493 C 230.975 140.652,230.439 131.959,232.180 127.381 C 232.359 126.910,232.373 126.908,231.667 127.457 M242.056 134.138 C 239.383 135.116,237.227 135.949,237.266 135.988 C 237.448 136.171,243.423 137.791,243.498 137.677 C 243.655 137.437,244.414 136.474,244.625 136.248 C 244.740 136.124,244.833 135.981,244.833 135.928 C 244.833 135.791,246.363 133.604,246.544 133.481 C 246.627 133.425,246.692 133.313,246.687 133.231 C 246.683 133.150,246.826 132.915,247.005 132.708 C 247.482 132.160,247.385 132.188,242.056 134.138 M263.667 135.166 C 263.667 135.280,263.310 135.708,262.875 136.117 C 262.440 136.526,261.812 137.117,261.481 137.430 C 261.149 137.744,260.793 138.000,260.689 138.000 C 260.585 138.000,260.500 138.063,260.500 138.140 C 260.500 138.321,257.929 140.359,257.075 140.853 C 256.713 141.063,256.379 141.276,256.333 141.326 C 256.137 141.540,255.167 142.167,255.033 142.167 C 254.952 142.167,254.667 142.354,254.401 142.583 C 254.135 142.812,253.785 143.000,253.625 143.000 C 253.465 143.000,253.333 143.058,253.333 143.130 C 253.333 143.201,252.764 143.556,252.069 143.919 L 250.804 144.578 250.925 148.714 C 250.991 150.989,251.092 153.065,251.148 153.327 C 251.263 153.866,250.682 154.654,256.000 146.750 C 257.481 144.550,258.789 142.650,258.908 142.527 C 259.109 142.320,262.363 143.182,271.962 145.986 C 272.371 146.106,272.478 146.096,272.391 145.948 C 272.293 145.782,267.814 140.014,264.976 136.400 C 264.040 135.207,263.667 134.856,263.667 135.166 M151.667 158.461 L 151.667 180.255 153.625 181.410 C 154.702 182.046,155.771 182.693,156.000 182.849 C 156.229 183.005,156.979 183.487,157.667 183.920 C 160.047 185.418,164.995 188.817,167.583 190.733 C 169.290 191.996,172.249 194.278,172.549 194.563 C 172.660 194.667,173.385 195.277,174.160 195.918 C 174.936 196.559,175.937 197.421,176.385 197.833 C 177.591 198.944,177.626 198.952,177.820 198.129 C 178.003 197.358,178.542 195.769,179.248 193.917 C 182.801 184.605,181.121 169.990,175.263 159.250 C 174.044 157.015,173.730 156.500,172.407 154.572 C 169.536 150.390,166.639 147.632,159.333 142.128 C 154.433 138.436,152.010 136.667,151.853 136.667 C 151.716 136.667,151.667 142.481,151.667 158.461 M213.412 141.708 C 213.231 141.807,213.046 141.935,213.000 141.993 C 212.954 142.050,212.186 142.643,211.293 143.310 C 210.399 143.976,209.574 144.611,209.459 144.719 C 209.344 144.828,208.875 145.217,208.416 145.583 C 203.249 149.717,200.862 152.420,197.941 157.449 C 195.798 161.139,194.362 164.477,193.080 168.750 C 190.274 178.109,190.325 187.665,193.219 194.694 C 193.855 196.238,194.333 197.790,194.333 198.307 C 194.333 198.970,194.663 198.824,196.198 197.483 C 198.225 195.712,198.431 195.537,199.417 194.749 C 199.875 194.383,200.287 194.043,200.333 193.994 C 200.379 193.944,200.903 193.532,201.498 193.077 C 202.093 192.622,202.666 192.175,202.771 192.083 C 202.877 191.992,203.140 191.790,203.357 191.636 C 203.573 191.481,204.237 190.993,204.833 190.552 C 208.666 187.712,214.147 184.039,217.894 181.799 C 218.706 181.314,219.643 180.746,219.977 180.538 C 220.310 180.330,220.696 180.110,220.833 180.050 C 220.971 179.990,221.369 179.763,221.719 179.545 C 222.710 178.927,223.354 178.567,226.839 176.677 C 228.456 175.801,235.243 172.456,237.536 171.406 C 238.518 170.956,239.268 170.543,239.203 170.487 C 239.137 170.431,238.483 170.178,237.750 169.925 C 226.350 165.982,217.292 155.844,214.265 143.639 C 213.772 141.653,213.722 141.539,213.412 141.708 " stroke="none" fill="#f42a41" fill-rule="evenodd"></path><path id="path3" d="M209.708 58.286 C 209.960 58.324,210.373 58.324,210.625 58.286 C 210.877 58.248,210.671 58.217,210.167 58.217 C 209.662 58.217,209.456 58.248,209.708 58.286 M213.877 58.286 C 214.131 58.325,214.506 58.324,214.711 58.284 C 214.916 58.244,214.708 58.213,214.250 58.214 C 213.792 58.216,213.624 58.248,213.877 58.286 M199.717 69.167 C 199.717 69.671,199.748 69.877,199.786 69.625 C 199.824 69.373,199.824 68.960,199.786 68.708 C 199.748 68.456,199.717 68.662,199.717 69.167 M196.875 74.417 C 196.877 74.783,196.911 74.914,196.951 74.706 C 196.991 74.499,196.990 74.199,196.948 74.040 C 196.906 73.880,196.874 74.050,196.875 74.417 M198.542 75.750 C 198.544 76.117,198.578 76.247,198.618 76.040 C 198.658 75.832,198.656 75.532,198.615 75.373 C 198.573 75.214,198.540 75.383,198.542 75.750 M198.542 79.250 C 198.544 79.617,198.578 79.747,198.618 79.540 C 198.658 79.332,198.656 79.032,198.615 78.873 C 198.573 78.714,198.540 78.883,198.542 79.250 M168.960 97.451 C 169.168 97.491,169.468 97.490,169.627 97.448 C 169.786 97.406,169.617 97.374,169.250 97.375 C 168.883 97.377,168.753 97.411,168.960 97.451 M139.667 103.250 C 139.978 103.571,140.270 103.833,140.315 103.833 C 140.361 103.833,140.144 103.571,139.833 103.250 C 139.522 102.929,139.230 102.667,139.185 102.667 C 139.139 102.667,139.356 102.929,139.667 103.250 M162.375 105.786 C 162.627 105.824,163.040 105.824,163.292 105.786 C 163.544 105.748,163.337 105.717,162.833 105.717 C 162.329 105.717,162.123 105.748,162.375 105.786 M249.872 120.167 C 249.872 120.487,249.906 120.619,249.948 120.458 C 249.990 120.298,249.990 120.035,249.948 119.875 C 249.906 119.715,249.872 119.846,249.872 120.167 M250.048 125.083 C 250.049 125.542,250.081 125.709,250.120 125.456 C 250.158 125.203,250.157 124.828,250.117 124.623 C 250.078 124.418,250.046 124.625,250.048 125.083 M262.167 130.333 C 261.971 130.608,261.848 130.833,261.894 130.833 C 261.940 130.833,262.138 130.608,262.333 130.333 C 262.529 130.058,262.652 129.833,262.606 129.833 C 262.560 129.833,262.362 130.058,262.167 130.333 M257.250 136.167 C 257.193 136.258,257.197 136.333,257.259 136.333 C 257.320 136.333,257.193 136.481,256.977 136.661 C 256.760 136.841,256.668 136.991,256.771 136.994 C 256.999 137.001,257.389 136.555,257.436 136.233 C 257.476 135.960,257.396 135.931,257.250 136.167 M250.872 148.833 C 250.872 149.154,250.906 149.285,250.948 149.125 C 250.990 148.965,250.990 148.702,250.948 148.542 C 250.906 148.381,250.872 148.512,250.872 148.833 M239.417 155.667 C 239.961 156.217,240.444 156.667,240.490 156.667 C 240.535 156.667,240.128 156.217,239.583 155.667 C 239.039 155.117,238.556 154.667,238.510 154.667 C 238.465 154.667,238.872 155.117,239.417 155.667 " stroke="none" fill="#f88592" fill-rule="evenodd"></path><path id="path4" d="M208.292 58.284 C 208.498 58.324,208.835 58.324,209.042 58.284 C 209.248 58.245,209.079 58.212,208.667 58.212 C 208.254 58.212,208.085 58.245,208.292 58.284 M215.292 58.284 C 215.498 58.324,215.835 58.324,216.042 58.284 C 216.248 58.245,216.079 58.212,215.667 58.212 C 215.254 58.212,215.085 58.245,215.292 58.284 M159.411 60.542 L 158.417 61.583 159.458 60.589 C 160.031 60.041,160.500 59.573,160.500 59.547 C 160.500 59.424,160.336 59.574,159.411 60.542 M204.744 60.375 L 203.917 61.250 204.792 60.423 C 205.273 59.968,205.667 59.574,205.667 59.548 C 205.667 59.424,205.512 59.562,204.744 60.375 M232.542 63.948 C 232.702 63.990,232.965 63.990,233.125 63.948 C 233.285 63.906,233.154 63.872,232.833 63.872 C 232.512 63.872,232.381 63.906,232.542 63.948 M190.708 73.448 C 190.869 73.490,191.131 73.490,191.292 73.448 C 191.452 73.406,191.321 73.372,191.000 73.372 C 190.679 73.372,190.548 73.406,190.708 73.448 M198.556 77.500 C 198.556 78.188,198.585 78.469,198.621 78.125 C 198.657 77.781,198.657 77.219,198.621 76.875 C 198.585 76.531,198.556 76.813,198.556 77.500 M180.708 89.782 C 180.869 89.823,181.131 89.823,181.292 89.782 C 181.452 89.740,181.321 89.705,181.000 89.705 C 180.679 89.705,180.548 89.740,180.708 89.782 M160.875 102.615 C 161.035 102.657,161.298 102.657,161.458 102.615 C 161.619 102.573,161.487 102.539,161.167 102.539 C 160.846 102.539,160.715 102.573,160.875 102.615 M270.705 107.667 C 270.705 107.987,270.740 108.119,270.782 107.958 C 270.823 107.798,270.823 107.535,270.782 107.375 C 270.740 107.215,270.705 107.346,270.705 107.667 M253.717 113.167 C 253.717 113.671,253.748 113.877,253.786 113.625 C 253.824 113.373,253.824 112.960,253.786 112.708 C 253.748 112.456,253.717 112.662,253.717 113.167 M262.214 114.083 C 262.216 114.542,262.248 114.709,262.286 114.456 C 262.325 114.203,262.324 113.828,262.284 113.623 C 262.244 113.418,262.213 113.625,262.214 114.083 M262.214 118.250 C 262.216 118.708,262.248 118.876,262.286 118.623 C 262.325 118.369,262.324 117.994,262.284 117.789 C 262.244 117.584,262.213 117.792,262.214 118.250 M249.883 121.500 C 249.883 122.004,249.915 122.210,249.953 121.958 C 249.991 121.706,249.991 121.294,249.953 121.042 C 249.915 120.790,249.883 120.996,249.883 121.500 M250.042 126.417 C 250.044 126.783,250.078 126.914,250.118 126.706 C 250.158 126.499,250.156 126.199,250.115 126.040 C 250.073 125.880,250.040 126.050,250.042 126.417 M238.573 143.542 L 238.083 144.083 238.625 143.594 C 239.130 143.138,239.243 143.000,239.115 143.000 C 239.086 143.000,238.842 143.244,238.573 143.542 M250.705 145.167 C 250.705 145.487,250.740 145.619,250.782 145.458 C 250.823 145.298,250.823 145.035,250.782 144.875 C 250.740 144.715,250.705 144.846,250.705 145.167 M236.167 146.083 C 235.762 146.496,235.468 146.833,235.514 146.833 C 235.560 146.833,235.928 146.496,236.333 146.083 C 236.738 145.671,237.032 145.333,236.986 145.333 C 236.940 145.333,236.572 145.671,236.167 146.083 M270.581 152.042 L 268.417 154.250 270.625 152.086 C 271.840 150.895,272.833 149.902,272.833 149.877 C 272.833 149.758,272.591 149.990,270.581 152.042 M266.740 155.708 L 266.250 156.250 266.792 155.760 C 267.297 155.304,267.410 155.167,267.281 155.167 C 267.252 155.167,267.009 155.410,266.740 155.708 " stroke="none" fill="#fbbcc3" fill-rule="evenodd"></path></g></svg>